<?xml version="1.0" encoding="UTF-8" standalone="no"?><!DOCTYPE svg PUBLIC "-//W3C//DTD SVG 1.1//EN" "http://www.w3.org/Graphics/SVG/1.1/DTD/svg11.dtd"><svg width="100%" height="100%" viewBox="0 0 512 512" version="1.1" xmlns="http://www.w3.org/2000/svg" xmlns:xlink="http://www.w3.org/1999/xlink" xml:space="preserve" xmlns:serif="http://www.serif.com/" style="fill-rule:evenodd;clip-rule:evenodd;stroke-linejoin:round;stroke-miterlimit:2;"><path d="M512,102.4c0,-56.516 -45.884,-102.4 -102.4,-102.4l-307.2,-0c-56.516,-0 -102.4,45.884 -102.4,102.4l0,307.2c0,56.516 45.884,102.4 102.4,102.4l307.2,0c56.516,0 102.4,-45.884 102.4,-102.4l0,-307.2Z" style="fill:#ddd6fe;"/><path d="M512,102.4l0,307.2c0,56.516 -45.884,102.4 -102.4,102.4l-307.2,0c-56.516,0 -102.4,-45.884 -102.4,-102.4l0,-307.2c0,-56.516 45.884,-102.4 102.4,-102.4l307.2,-0c56.516,-0 102.4,45.884 102.4,102.4Zm-20.833,0c-0,-45.018 -36.549,-81.567 -81.567,-81.567l-307.2,0c-45.018,0 -81.567,36.549 -81.567,81.567l0,307.2c0,45.018 36.549,81.567 81.567,81.567l307.2,-0c45.018,-0 81.567,-36.549 81.567,-81.567l-0,-307.2Z" style="fill:#a78bfa;"/><g transform="matrix(366.667,0,0,366.667,411.587,351.793)"></g><text x="124.487px" y="351.793px" style="font-family:'SNProVF-Bold', 'SN Pro';font-weight:200;font-size:366.667px;fill:#4c1d95;">jb</text></svg>